<svg width="20" height="20" viewBox="0 0 20 20" fill="none" xmlns="http://www.w3.org/2000/svg">
<path d="M16.875 3.75H13.125V2.5C13.1246 2.16862 12.9927 1.85093 12.7584 1.61661C12.5241 1.38229 12.2064 1.25045 11.875 1.25H8.125C7.79362 1.25045 7.47593 1.38229 7.24161 1.61661C7.00729 1.85093 6.87545 2.16862 6.875 2.5V3.75H3.125C2.95924 3.75 2.80027 3.81585 2.68306 3.93306C2.56585 4.05027 2.5 4.20924 2.5 4.375C2.5 4.54076 2.56585 4.69973 2.68306 4.81694C2.80027 4.93415 2.95924 5 3.125 5H3.75V17.5C3.75045 17.8314 3.88229 18.1491 4.11661 18.3834C4.35093 18.6177 4.66862 18.7496 5 18.75H15C15.3314 18.7496 15.6491 18.6177 15.8834 18.3834C16.1177 18.1491 16.2496 17.8314 16.25 17.5V5H16.875C17.0408 5 17.1997 4.93415 17.3169 4.81694C17.4342 4.69973 17.5 4.54076 17.5 4.375C17.5 4.20924 17.4342 4.05027 17.3169 3.93306C17.1997 3.81585 17.0408 3.75 16.875 3.75ZM8.125 2.5H11.875V3.75H8.125V2.5ZM15 17.5H5V5H15V17.5Z" fill="#878787"/>
<path d="M8.75 6.875C8.58424 6.875 8.42527 6.94085 8.30806 7.05806C8.19085 7.17527 8.125 7.33424 8.125 7.5V15C8.125 15.1658 8.19085 15.3247 8.30806 15.4419C8.42527 15.5592 8.58424 15.625 8.75 15.625C8.91576 15.625 9.07473 15.5592 9.19194 15.4419C9.30915 15.3247 9.375 15.1658 9.375 15V7.5C9.375 7.33424 9.30915 7.17527 9.19194 7.05806C9.07473 6.94085 8.91576 6.875 8.75 6.875Z" fill="#878787"/>
<path d="M11.25 6.875C11.0842 6.875 10.9253 6.94085 10.8081 7.05806C10.6908 7.17527 10.625 7.33424 10.625 7.5V15C10.625 15.1658 10.6908 15.3247 10.8081 15.4419C10.9253 15.5592 11.0842 15.625 11.25 15.625C11.4158 15.625 11.5747 15.5592 11.6919 15.4419C11.8092 15.3247 11.875 15.1658 11.875 15V7.5C11.875 7.33424 11.8092 7.17527 11.6919 7.05806C11.5747 6.94085 11.4158 6.875 11.25 6.875Z" fill="#878787"/>
</svg>
