<svg width="36" height="36" viewBox="0 0 36 36" fill="none" xmlns="http://www.w3.org/2000/svg">
<g clip-path="url(#clip0_113_838)">
<path d="M35.4727 8.11114C35.7639 8.11114 36 7.87503 36 7.5838V4.93091C36 4.63967 35.7639 4.40356 35.4727 4.40356C34.7767 4.40356 34.0965 4.5366 33.4507 4.799L29.8898 6.24793C29.4287 6.43503 28.9208 6.43503 28.4602 6.24814L25.6089 5.08799C24.3051 4.55769 22.8689 4.55769 21.5651 5.08799L18.7142 6.248C18.2534 6.43517 17.746 6.43517 17.2854 6.24814L14.4342 5.08799C13.1304 4.55769 11.6942 4.55769 10.3904 5.08799L7.5394 6.248C7.07864 6.43517 6.57113 6.43517 6.11065 6.24814L2.54904 4.79886C1.9035 4.5366 1.2233 4.40356 0.527344 4.40356C0.236109 4.40356 0 4.63967 0 4.93091V19.8196C0 20.1108 0.236109 20.3469 0.527344 20.3469C0.818578 20.3469 1.05469 20.1108 1.05469 19.8196V5.49038C1.43016 5.53644 1.79754 5.63199 2.15184 5.77592L5.71345 7.22521C5.90393 7.30255 6.09961 7.35873 6.29768 7.39501V28.0495C6.23468 28.0312 6.17217 28.0097 6.11058 27.9846L2.54904 26.536C2.06761 26.3404 1.56684 26.2168 1.05469 26.1666V22.2805C1.05469 21.9893 0.818578 21.7532 0.527344 21.7532C0.236109 21.7532 0 21.9893 0 22.2805V29.0826C0 29.3738 0.236109 29.6099 0.527344 29.6099C0.772523 29.6099 1.01327 29.657 1.242 29.7496L4.8034 31.1987C6.10706 31.7289 7.54291 31.729 8.84651 31.1987L11.6972 30.0388C12.1583 29.8517 12.6662 29.8517 13.1269 30.0386L15.9775 31.1987C16.6294 31.4639 17.3143 31.5964 17.9993 31.5964C18.6843 31.5964 19.3693 31.4638 20.0213 31.1987L22.872 30.0387C23.3331 29.8516 23.8409 29.8516 24.3016 30.0385L27.1529 31.1987C27.8014 31.4624 28.4816 31.5962 29.1748 31.5962C29.8679 31.5962 30.5481 31.4624 31.1967 31.1987L34.7572 29.75C34.9867 29.657 35.2274 29.6099 35.4727 29.6099C35.7639 29.6099 36 29.3738 36 29.0826V10.0447C36 9.7535 35.7639 9.51739 35.4727 9.51739C35.1814 9.51739 34.9453 9.7535 34.9453 10.0447V26.1666C34.4332 26.2169 33.9324 26.3404 33.4507 26.536L29.8894 27.9846C29.8278 28.0096 29.7653 28.031 29.7023 28.0494V7.39473C29.9005 7.35852 30.0962 7.30234 30.2868 7.22499L33.8479 5.77599C34.2023 5.63199 34.5697 5.53644 34.9452 5.49038V7.5838C34.9453 7.87503 35.1814 8.11114 35.4727 8.11114ZM19.1114 7.22499L21.9625 6.06484C22.2527 5.94685 22.5511 5.86269 22.8531 5.8101V26.4811C22.4141 26.5418 21.9812 26.6558 21.5653 26.825L18.7138 27.9846C18.6524 28.0096 18.5902 28.031 18.5274 28.0493V7.3948C18.7253 7.35859 18.921 7.30234 19.1114 7.22499ZM16.8881 7.22514C17.0787 7.30255 17.2745 7.35873 17.4726 7.39494V28.0494C17.4094 28.031 17.3469 28.0096 17.2852 27.9844L14.4341 26.825C14.0157 26.6548 13.5837 26.54 13.1469 26.479V5.81024C13.4486 5.8629 13.7468 5.94692 14.0367 6.06484L16.8881 7.22514ZM7.93659 7.22499L10.7877 6.06484C11.2099 5.89313 11.6494 5.79181 12.0922 5.75856V26.4381C11.5147 26.473 10.9407 26.6012 10.3904 26.825L7.53884 27.9846C7.47738 28.0096 7.41509 28.031 7.35223 28.0494V7.39487C7.55037 7.35859 7.74612 7.30241 7.93659 7.22499ZM30.2868 28.9615L33.8479 27.5131C34.2025 27.3691 34.5698 27.2735 34.9453 27.2275V28.6027C34.7465 28.6388 34.5511 28.6956 34.3605 28.7728L30.7993 30.2218C30.2776 30.434 29.731 30.5415 29.1748 30.5415C28.6185 30.5415 28.0719 30.434 27.5503 30.2218L24.6986 29.0615C23.9818 28.7706 23.1923 28.7706 22.4749 29.0617L19.6238 30.2218C18.5762 30.6478 17.4223 30.6479 16.3749 30.2218L13.5239 29.0615C12.807 28.7706 12.0175 28.7706 11.3002 29.0617L8.44917 30.2218C7.4018 30.6478 6.24811 30.6478 5.20088 30.2218L1.6387 28.7723C1.44865 28.6954 1.25346 28.6387 1.05476 28.6026V27.2274C1.43023 27.2735 1.79761 27.369 2.15191 27.513L5.71296 28.9613C6.43008 29.2535 7.21983 29.2534 7.93659 28.9615L10.7878 27.8019C11.8354 27.3759 12.9894 27.3759 14.0369 27.8019L16.8877 28.9613C17.6048 29.2534 18.3946 29.2533 19.1114 28.9614L21.9625 27.8019C22.9046 27.4187 23.954 27.3806 24.9171 27.6946C25.1938 27.7846 25.4917 27.6336 25.5819 27.3566C25.6722 27.0797 25.5209 26.7821 25.2439 26.6918C24.8088 26.55 24.3596 26.4666 23.9078 26.4396V5.75863C24.3503 5.79196 24.7896 5.89328 25.2115 6.06484L28.0632 7.22521C28.2538 7.30255 28.4496 7.35866 28.6477 7.39487V28.0495C28.5846 28.0312 28.522 28.0097 28.4603 27.9846L27.5638 27.6196C27.294 27.5098 26.9864 27.6394 26.8766 27.9092C26.7668 28.179 26.8964 28.4867 27.1662 28.5965L28.0628 28.9615C28.7799 29.2533 29.5698 29.2533 30.2868 28.9615Z" fill="black"/>
</g>
<defs>
<clipPath id="clip0_113_838">
<rect width="36" height="36" fill="white"/>
</clipPath>
</defs>
</svg>
