<svg width="36" height="36" viewBox="0 0 36 36" fill="none" xmlns="http://www.w3.org/2000/svg">
<g clip-path="url(#clip0_113_858)">
<path d="M36 4.19998V0.599977C36 0.592313 35.9959 0.585914 35.9956 0.57832C35.9945 0.507023 35.9805 0.43657 35.9543 0.370266L35.9534 0.368719C35.9511 0.363234 35.9468 0.359227 35.9445 0.353883C35.9177 0.295383 35.8815 0.241664 35.8373 0.194836C35.8227 0.180281 35.8075 0.1665 35.7915 0.153563C35.7537 0.120305 35.7117 0.0919688 35.6666 0.0693984C35.6481 0.0593437 35.629 0.0502734 35.6095 0.0423281C35.5428 0.0156094 35.4718 0.00126563 35.4 0H16.2C16.0409 7.03125e-05 15.8883 0.0632812 15.7758 0.175781L0.175992 15.7756L0.175078 15.7767C0.126844 15.8266 0.08775 15.8846 0.0595547 15.9481C0.0319922 16.0168 0.0144844 16.0892 0.00745312 16.1629C0.00660938 16.1759 0 16.1869 0 16.2V19.8C0 20.1314 0.268594 20.4 0.599977 20.4H5.09998C6.59046 20.4016 7.79836 21.6095 7.79998 23.1V23.7516L0.175992 31.3756C0.064125 31.4887 0.000984375 31.641 0 31.8V35.4C0 35.7314 0.268594 36 0.599977 36H19.8C19.8809 36 19.9609 35.9835 20.0353 35.9516C20.0434 35.9482 20.0492 35.9407 20.0571 35.9369C20.1208 35.9075 20.1789 35.8672 20.2287 35.8177L20.2345 35.8137L32.2242 23.2242L35.8242 19.6242C35.9367 19.5117 36 19.3591 36 19.2V15.6C36 15.5924 35.9959 15.586 35.9956 15.5784C35.9945 15.5071 35.9805 15.4366 35.9543 15.3703L35.9534 15.3688C35.9511 15.3633 35.9468 15.3593 35.9445 15.3539C35.8855 15.2312 35.7879 15.1313 35.6667 15.0694C35.6482 15.0593 35.6291 15.0503 35.6096 15.0423C35.5428 15.0156 35.4719 15.0012 35.4 15H30.9C30.8489 15.0034 30.7985 15.0135 30.75 15.0303C30.7016 15.0136 30.6512 15.0034 30.6001 15C29.2004 14.9957 28.0371 13.9205 27.9229 12.5255L35.8239 4.62459C35.9359 4.5116 35.9991 4.35916 36 4.19998ZM16.4484 1.20002H33.9515L19.5515 15.6H2.04841L16.4484 1.20002ZM7.79998 25.4484V28.5C7.79836 29.9905 6.59046 31.1984 5.09998 31.2H2.04841L7.79998 25.4484ZM19.2 34.8H1.20002V32.4H5.10005C7.25294 32.3975 8.99754 30.6529 9.00007 28.5V23.1C8.99761 20.9471 7.25294 19.2025 5.10005 19.2H1.20002V16.8H19.2V19.2H15.3C13.1471 19.2024 11.4025 20.9471 11.4 23.1V28.5C11.4024 30.6529 13.1471 32.3975 15.3 32.4H19.2V34.8ZM34.8 18.9515L31.3652 22.3863L20.4 33.8998V32.0399L32.2242 19.6242L34.8 17.0485L34.8 18.9515ZM30.6 16.2C30.6511 16.1966 30.7015 16.1864 30.75 16.1697C30.7984 16.1864 30.8488 16.1966 30.9 16.2H33.9515L31.3652 18.7863L19.5427 31.2H15.3C13.8095 31.1984 12.6016 29.9905 12.6 28.5V23.1C12.6016 21.6095 13.8095 20.4016 15.3 20.4H19.8C19.9591 20.3995 20.1116 20.3363 20.2244 20.224L26.9063 13.542C27.4406 15.1282 28.9264 16.1973 30.6 16.2ZM34.8 3.95156L26.876 11.8756L26.8756 11.8759L20.4 18.3516V16.4484L34.8 2.04841V3.95156Z" fill="black"/>
<path d="M15.23 28.2121C15.0049 28.1187 14.7456 28.1707 14.5739 28.3438C14.4643 28.4588 14.4022 28.6109 14.3999 28.7698C14.3999 29.1012 14.6686 29.3698 14.9999 29.3698C15.3313 29.3698 15.5999 29.1012 15.5999 28.7698C15.6013 28.5259 15.4552 28.3056 15.23 28.2121Z" fill="black"/>
<path d="M17.5417 25.674C17.3333 25.6233 17.1138 25.6877 16.9658 25.8429L16.3658 26.4716C16.138 26.7115 16.1474 27.0905 16.3868 27.3189C16.6262 27.5473 17.0053 27.5389 17.2342 27.3001L17.8342 26.6713C17.9822 26.5162 18.0362 26.2939 17.9759 26.0882C17.9155 25.8825 17.75 25.7246 17.5417 25.674Z" fill="black"/>
<path d="M19.3658 23.3284L18.7658 23.9571C18.537 24.1969 18.5459 24.5768 18.7857 24.8056C19.0254 25.0344 19.4053 25.0255 19.6341 24.7857L20.2341 24.157C20.4629 23.9172 20.454 23.5373 20.2142 23.3085C19.9744 23.0797 19.5946 23.0886 19.3658 23.3284Z" fill="black"/>
<path d="M21.7657 20.8143L21.1657 21.443C20.9999 21.6167 20.9537 21.8726 21.0482 22.0934C21.1427 22.3142 21.3597 22.4573 21.5999 22.4572C21.764 22.4575 21.921 22.3903 22.0341 22.2715L22.6341 21.6427C22.8629 21.403 22.8539 21.0231 22.6142 20.7943C22.3744 20.5656 21.9945 20.5745 21.7657 20.8143Z" fill="black"/>
<path d="M24.7423 18.1299C24.5336 18.0794 24.3137 18.1443 24.1659 18.3L23.5659 18.9287C23.4001 19.1025 23.3538 19.3583 23.4483 19.5791C23.5428 19.7999 23.7599 19.9431 24.0001 19.943C24.1641 19.9432 24.3211 19.876 24.4342 19.7572L25.0342 19.1285C25.1829 18.9734 25.2373 18.7508 25.177 18.5448C25.1168 18.3387 24.951 18.1805 24.7423 18.1299Z" fill="black"/>
<path d="M26.1698 16.2722C25.9447 16.3657 25.7985 16.5861 25.7999 16.8299C25.7971 16.988 25.8601 17.1402 25.9739 17.25C26.0861 17.3645 26.2396 17.4293 26.3999 17.4299C26.5603 17.4293 26.7137 17.3645 26.826 17.25C26.9397 17.1401 27.0027 16.9879 27 16.8299C26.9987 16.6708 26.9364 16.5183 26.826 16.4039C26.6543 16.2307 26.3949 16.1787 26.1698 16.2722Z" fill="black"/>
</g>
<defs>
<clipPath id="clip0_113_858">
<rect width="36" height="36" fill="white"/>
</clipPath>
</defs>
</svg>
