<svg width="36" height="36" viewBox="0 0 36 36" fill="none" xmlns="http://www.w3.org/2000/svg">
<g clip-path="url(#clip0_113_845)">
<path d="M34.875 0.5625H1.125C0.975816 0.5625 0.832742 0.621763 0.727252 0.727252C0.621763 0.832742 0.5625 0.975816 0.5625 1.125V4.5C0.5625 4.64918 0.621763 4.79226 0.727252 4.89775C0.832742 5.00324 0.975816 5.0625 1.125 5.0625H1.6875V30.9375H1.125C0.975816 30.9375 0.832742 30.9968 0.727252 31.1023C0.621763 31.2077 0.5625 31.3508 0.5625 31.5V34.875C0.5625 35.0242 0.621763 35.1673 0.727252 35.2727C0.832742 35.3782 0.975816 35.4375 1.125 35.4375H34.875C35.0242 35.4375 35.1673 35.3782 35.2727 35.2727C35.3782 35.1673 35.4375 35.0242 35.4375 34.875V31.5C35.4375 31.3508 35.3782 31.2077 35.2727 31.1023C35.1673 30.9968 35.0242 30.9375 34.875 30.9375H34.3125V5.0625H34.875C35.0242 5.0625 35.1673 5.00324 35.2727 4.89775C35.3782 4.79226 35.4375 4.64918 35.4375 4.5V1.125C35.4375 0.975816 35.3782 0.832742 35.2727 0.727252C35.1673 0.621763 35.0242 0.5625 34.875 0.5625ZM2.8125 5.0625H3.9375V30.9375H2.8125V5.0625ZM24.75 30.9375V19.6875H30.9375V30.9375H24.75ZM30.9375 18.5625H24.75V17.4375H30.9375V18.5625ZM30.9375 16.3125H24.75V5.0625H30.9375V16.3125ZM23.625 30.9375H22.5V5.0625H23.625V30.9375ZM14.625 13.5H21.375V22.5H14.625V13.5ZM14.625 23.625H21.375V24.75H14.625V23.625ZM21.375 12.375H14.625V11.25H21.375V12.375ZM14.625 25.875H21.375V30.9375H14.625V25.875ZM21.375 10.125H14.625V5.0625H21.375V10.125ZM13.5 30.9375H12.375V5.0625H13.5V30.9375ZM11.25 18.5625H5.0625V17.4375H11.25V18.5625ZM5.0625 19.6875H11.25V30.9375H5.0625V19.6875ZM11.25 16.3125H5.0625V5.0625H11.25V16.3125ZM34.3125 34.3125H1.6875V32.0625H34.3125V34.3125ZM33.1875 30.9375H32.0625V5.0625H33.1875V30.9375ZM34.3125 3.9375H1.6875V1.6875H34.3125V3.9375Z" fill="black"/>
</g>
<defs>
<clipPath id="clip0_113_845">
<rect width="36" height="36" fill="white"/>
</clipPath>
</defs>
</svg>
