<svg width="36" height="36" viewBox="0 0 36 36" fill="none" xmlns="http://www.w3.org/2000/svg">
<g clip-path="url(#clip0_113_841)">
<path d="M12.375 14.0625C7.10213 14.0625 2.8125 18.3521 2.8125 23.625C2.8125 28.8979 7.10213 33.1875 12.375 33.1875C17.6479 33.1875 21.9375 28.8979 21.9375 23.625C21.9375 18.3521 17.6479 14.0625 12.375 14.0625ZM19.5609 28.0249C18.2453 28.8247 16.7378 29.25 15.1875 29.25C10.5351 29.25 6.75 25.4649 6.75 20.8125C6.75 19.2622 7.17525 17.7548 7.97456 16.4396C8.19056 16.3069 8.41219 16.1837 8.64056 16.0706C8.51062 16.7029 8.4375 17.3469 8.4375 18C8.4375 23.2729 12.7271 27.5625 18 27.5625C18.6531 27.5625 19.2977 27.4894 19.9299 27.3594C19.8163 27.5872 19.6937 27.8089 19.5609 28.0249ZM9.93037 15.5514C10.3579 15.4215 10.8011 15.3309 11.2545 15.2708C11.2995 20.4767 15.5233 24.7005 20.7292 24.7455C20.6685 25.1983 20.5779 25.6421 20.4486 26.0696C19.6577 26.3093 18.8364 26.4375 18 26.4375C13.3476 26.4375 9.5625 22.6524 9.5625 18C9.5625 17.1641 9.69019 16.3423 9.93037 15.5514ZM20.8125 23.625C16.1601 23.625 12.375 19.8399 12.375 15.1875C17.0274 15.1875 20.8125 18.9726 20.8125 23.625ZM3.9375 23.625C3.9375 21.5072 4.72725 19.5744 6.02044 18.0917C5.76056 18.9686 5.625 19.8838 5.625 20.8125C5.625 26.0854 9.91463 30.375 15.1875 30.375C16.1162 30.375 17.0314 30.2394 17.9083 29.9796C16.4256 31.2728 14.4928 32.0625 12.375 32.0625C7.72256 32.0625 3.9375 28.2774 3.9375 23.625Z" fill="black"/>
<path d="M24.1357 0.5625C20.754 0.5625 17.5747 1.87931 15.1841 4.2705L5.22675 14.2279L5.23519 14.2363C2.40244 16.3963 0.5625 19.7955 0.5625 23.625C0.5625 30.1382 5.86125 35.4375 12.375 35.4375C16.8739 35.4375 20.7911 32.9079 22.7857 29.1977L32.1278 19.8557C34.2619 17.7216 35.4375 14.8832 35.4375 11.8642C35.4375 5.63231 30.3677 0.5625 24.1357 0.5625ZM12.375 34.3125C6.48169 34.3125 1.6875 29.5183 1.6875 23.625C1.6875 17.7317 6.48169 12.9375 12.375 12.9375C18.2683 12.9375 23.0625 17.7317 23.0625 23.625C23.0625 29.5183 18.2683 34.3125 12.375 34.3125ZM31.3318 19.0603L23.7932 26.5984C24.0418 25.6466 24.1875 24.6538 24.1875 23.625C24.1875 17.1118 18.8888 11.8125 12.375 11.8125C11.0559 11.8125 9.79088 12.0392 8.60513 12.4402L15.9795 5.06587C18.1581 2.88731 21.0549 1.6875 24.1357 1.6875C29.7472 1.6875 34.3125 6.25275 34.3125 11.8642C34.3125 14.5828 33.2539 17.1382 31.3318 19.0603Z" fill="black"/>
</g>
<defs>
<clipPath id="clip0_113_841">
<rect width="36" height="36" fill="white"/>
</clipPath>
</defs>
</svg>
