<svg width="36" height="36" viewBox="0 0 36 36" fill="none" xmlns="http://www.w3.org/2000/svg">
<g clip-path="url(#clip0_113_852)">
<path d="M34.875 2.8125H33.1875V1.125C33.1875 0.813938 32.9361 0.5625 32.625 0.5625H30.375C30.0639 0.5625 29.8125 0.813938 29.8125 1.125V2.8125H26.4375V1.125C26.4375 0.813938 26.1861 0.5625 25.875 0.5625H23.625C23.3139 0.5625 23.0625 0.813938 23.0625 1.125V2.8125H19.6875V1.125C19.6875 0.813938 19.4361 0.5625 19.125 0.5625H16.875C16.5639 0.5625 16.3125 0.813938 16.3125 1.125V2.8125H12.9375V1.125C12.9375 0.813938 12.6861 0.5625 12.375 0.5625H10.125C9.81394 0.5625 9.5625 0.813938 9.5625 1.125V2.8125H6.1875V1.125C6.1875 0.813938 5.93606 0.5625 5.625 0.5625H3.375C3.06394 0.5625 2.8125 0.813938 2.8125 1.125V2.8125H1.125C0.813938 2.8125 0.5625 3.06394 0.5625 3.375V5.625C0.5625 5.93606 0.813938 6.1875 1.125 6.1875H2.8125V8.4375H1.125C0.813938 8.4375 0.5625 8.68894 0.5625 9V11.25C0.5625 11.5611 0.813938 11.8125 1.125 11.8125H2.8125V24.1875H1.125C0.813938 24.1875 0.5625 24.4389 0.5625 24.75V27C0.5625 27.3111 0.813938 27.5625 1.125 27.5625H2.8125V29.8125H1.125C0.813938 29.8125 0.5625 30.0639 0.5625 30.375V32.625C0.5625 32.9361 0.813938 33.1875 1.125 33.1875H2.8125V34.875C2.8125 35.1861 3.06394 35.4375 3.375 35.4375H5.625C5.93606 35.4375 6.1875 35.1861 6.1875 34.875V33.1875H9.5625V34.875C9.5625 35.1861 9.81394 35.4375 10.125 35.4375H12.375C12.6861 35.4375 12.9375 35.1861 12.9375 34.875V33.1875H16.3125V34.875C16.3125 35.1861 16.5639 35.4375 16.875 35.4375H19.125C19.4361 35.4375 19.6875 35.1861 19.6875 34.875V33.1875H23.0625V34.875C23.0625 35.1861 23.3139 35.4375 23.625 35.4375H25.875C26.1861 35.4375 26.4375 35.1861 26.4375 34.875V33.1875H29.8125V34.875C29.8125 35.1861 30.0639 35.4375 30.375 35.4375H32.625C32.9361 35.4375 33.1875 35.1861 33.1875 34.875V33.1875H34.875C35.1861 33.1875 35.4375 32.9361 35.4375 32.625V30.375C35.4375 30.0639 35.1861 29.8125 34.875 29.8125H33.1875V27.5625H34.875C35.1861 27.5625 35.4375 27.3111 35.4375 27V24.75C35.4375 24.4389 35.1861 24.1875 34.875 24.1875H33.1875V11.8125H34.875C35.1861 11.8125 35.4375 11.5611 35.4375 11.25V9C35.4375 8.68894 35.1861 8.4375 34.875 8.4375H33.1875V6.1875H34.875C35.1861 6.1875 35.4375 5.93606 35.4375 5.625V3.375C35.4375 3.06394 35.1861 2.8125 34.875 2.8125ZM30.9375 1.6875H32.0625V2.8125H30.9375V1.6875ZM24.1875 1.6875H25.3125V2.8125H24.1875V1.6875ZM17.4375 1.6875H18.5625V2.8125H17.4375V1.6875ZM10.6875 1.6875H11.8125V2.8125H10.6875V1.6875ZM3.9375 1.6875H5.0625V2.8125H3.9375V1.6875ZM3.9375 6.1875H5.0625V8.4375H3.9375V6.1875ZM26.4375 8.4375V6.1875H29.8125V8.4375H26.4375ZM25.3125 8.4375H24.1875V6.1875H25.3125V8.4375ZM23.0625 8.4375H19.6875V6.1875H23.0625V8.4375ZM18.5625 8.4375H17.4375V6.1875H18.5625V8.4375ZM16.3125 8.4375H12.9375V6.1875H16.3125V8.4375ZM11.8125 8.4375H10.6875V6.1875H11.8125V8.4375ZM9.5625 8.4375H6.1875V6.1875H9.5625V8.4375ZM3.9375 11.8125H5.0625V24.1875H3.9375V11.8125ZM26.4375 24.1875V11.8125H29.8125V24.1875H26.4375ZM25.3125 24.1875H24.1875V11.8125H25.3125V24.1875ZM23.0625 24.1875H19.6875V11.8125H23.0625V24.1875ZM18.5625 24.1875H17.4375V11.8125H18.5625V24.1875ZM16.3125 24.1875H12.9375V11.8125H16.3125V24.1875ZM11.8125 24.1875H10.6875V11.8125H11.8125V24.1875ZM9.5625 24.1875H6.1875V11.8125H9.5625V24.1875ZM3.9375 27.5625H5.0625V29.8125H3.9375V27.5625ZM26.4375 29.8125V27.5625H29.8125V29.8125H26.4375ZM25.3125 29.8125H24.1875V27.5625H25.3125V29.8125ZM23.0625 29.8125H19.6875V27.5625H23.0625V29.8125ZM18.5625 29.8125H17.4375V27.5625H18.5625V29.8125ZM16.3125 29.8125H12.9375V27.5625H16.3125V29.8125ZM11.8125 29.8125H10.6875V27.5625H11.8125V29.8125ZM9.5625 29.8125H6.1875V27.5625H9.5625V29.8125ZM5.0625 34.3125H3.9375V33.1875H5.0625V34.3125ZM11.8125 34.3125H10.6875V33.1875H11.8125V34.3125ZM18.5625 34.3125H17.4375V33.1875H18.5625V34.3125ZM25.3125 34.3125H24.1875V33.1875H25.3125V34.3125ZM32.0625 34.3125H30.9375V33.1875H32.0625V34.3125ZM34.3125 32.0625H1.6875V30.9375H34.3125V32.0625ZM32.0625 29.8125H30.9375V27.5625H32.0625V29.8125ZM34.3125 26.4375H1.6875V25.3125H34.3125V26.4375ZM32.0625 24.1875H30.9375V11.8125H32.0625V24.1875ZM34.3125 10.6875H1.6875V9.5625H34.3125V10.6875ZM32.0625 8.4375H30.9375V6.1875H32.0625V8.4375ZM34.3125 5.0625H1.6875V3.9375H34.3125V5.0625Z" fill="black"/>
</g>
<defs>
<clipPath id="clip0_113_852">
<rect width="36" height="36" fill="white"/>
</clipPath>
</defs>
</svg>
