<svg width="36" height="36" viewBox="0 0 36 36" fill="none" xmlns="http://www.w3.org/2000/svg">
<g clip-path="url(#clip0_113_855)">
<path d="M34.875 10.6875H28.6875V4.5C28.6875 4.35082 28.6282 4.20774 28.5227 4.10225C28.4173 3.99676 28.2742 3.9375 28.125 3.9375H24.75C24.6008 3.93753 24.4578 3.99682 24.3523 4.10231L23.625 4.82963V1.125C23.625 0.975816 23.5657 0.832742 23.4602 0.727252C23.3548 0.621763 23.2117 0.5625 23.0625 0.5625H20.25C20.1008 0.562532 19.9578 0.621816 19.8523 0.727312L0.727312 19.8523C0.621816 19.9578 0.562532 20.1008 0.5625 20.25V34.875C0.5625 35.0242 0.621763 35.1673 0.727252 35.2727C0.832742 35.3782 0.975816 35.4375 1.125 35.4375H14.625C14.7742 35.4375 14.9172 35.3782 15.0227 35.2727L35.2727 15.0227C35.3782 14.9172 35.4375 14.7742 35.4375 14.625V11.25C35.4375 11.1008 35.3782 10.9577 35.2727 10.8523C35.1673 10.7468 35.0242 10.6875 34.875 10.6875ZM33.5171 11.8125L20.5796 24.75H15.4204L28.3579 11.8125H33.5171ZM27.5625 11.0166L14.625 23.9541V18.7954L27.5625 5.85787V11.0166ZM24.9829 5.0625H26.7671L13.8296 18H12.0454L24.9829 5.0625ZM14.3921 31.5H5.29537L10.125 26.6704V28.6875C10.125 28.8367 10.1843 28.9798 10.2898 29.0852C10.3952 29.1907 10.5383 29.25 10.6875 29.25H16.6421L14.3921 31.5ZM10.125 18.5625V25.0796L4.5 30.7046V20.4829L22.5 2.48287V5.95463L10.2898 18.1648C10.1843 18.2703 10.125 18.4133 10.125 18.5625ZM20.4829 1.6875H21.7046L3.70462 19.6875H2.48287L20.4829 1.6875ZM1.6875 20.8125H3.375V32.0625C3.375 32.2117 3.43426 32.3548 3.53975 32.4602C3.64524 32.5657 3.78832 32.625 3.9375 32.625H14.0625V34.3125H1.6875V20.8125ZM15.1875 33.5171V32.2954L18.2329 29.25H19.4546L15.1875 33.5171ZM20.25 28.125H11.25V19.125H13.5V25.3125C13.5 25.4617 13.5593 25.6048 13.6648 25.7102C13.7702 25.8157 13.9133 25.875 14.0625 25.875H20.25V28.125ZM21.375 27.3296V25.5454L34.3125 12.6079V14.3921L21.375 27.3296Z" fill="black"/>
</g>
<defs>
<clipPath id="clip0_113_855">
<rect width="36" height="36" fill="white"/>
</clipPath>
</defs>
</svg>
