<svg width="13" height="13" viewBox="0 0 13 13" fill="none" xmlns="http://www.w3.org/2000/svg">
<path d="M9.84625 9.82471C9.01133 9.82387 8.33383 10.534 8.33301 11.4108C8.33218 12.2877 9.00839 12.9992 9.84331 13.0001C10.6782 13.0009 11.3557 12.2908 11.3566 11.4139C11.3566 11.4134 11.3566 11.4129 11.3566 11.4124C11.3558 10.5365 10.6803 9.82641 9.84625 9.82471Z" fill="white"/>
<path d="M12.5275 2.22195C12.4914 2.2146 12.4546 2.21086 12.4178 2.2108H3.21306L3.06728 1.18654C2.97645 0.506314 2.42242 0.000209319 1.76836 0H0.583132C0.261071 0 0 0.274178 0 0.612409C0 0.950639 0.261071 1.22482 0.583132 1.22482H1.76981C1.84396 1.22425 1.90671 1.28223 1.91559 1.35956L2.81361 7.82352C2.93673 8.64489 3.60947 9.25084 4.40119 9.2535H10.4672C11.2295 9.25455 11.8871 8.69193 12.0402 7.90773L12.9893 2.93956C13.0505 2.60749 12.8437 2.28622 12.5275 2.22195Z" fill="white"/>
<path d="M6.14283 11.3441C6.10733 10.493 5.43849 9.82298 4.62726 9.82594C3.79302 9.86134 3.14406 10.6003 3.17777 11.4764C3.21012 12.3171 3.86127 12.9853 4.66225 12.9998H4.6987C5.53282 12.9614 6.17936 12.2201 6.14283 11.3441Z" fill="white"/>
</svg>
