<svg width="12" height="12" viewBox="0 0 12 12" fill="none" xmlns="http://www.w3.org/2000/svg">
<path d="M10.656 8.35218C9.87816 7.73215 9.08879 7.35658 8.32052 7.97567L7.86177 8.34984C7.52612 8.62145 6.90206 9.89054 4.48922 7.30366C2.07688 4.72005 3.51242 4.31778 3.84857 4.04851L4.30984 3.67387C5.07409 3.05338 4.78567 2.27225 4.23447 1.46819L3.90183 0.981154C3.34812 0.178958 2.74516 -0.347878 1.9789 0.271681L1.56486 0.608857C1.2262 0.838791 0.279556 1.5862 0.0499287 3.00608C-0.226428 4.70975 0.645351 6.66068 2.64265 8.80128C4.63744 10.9428 6.59053 12.0185 8.44061 11.9998C9.97815 11.9843 10.9067 11.2154 11.1971 10.9358L11.6127 10.5981C12.3769 9.97905 11.9021 9.34872 11.1238 8.72729L10.656 8.35218Z" fill="white"/>
</svg>
