<svg width="13" height="13" viewBox="0 0 13 13" fill="none" xmlns="http://www.w3.org/2000/svg">
<path d="M6.5 13C10.0895 13 13 10.0895 13 6.5C13 2.91053 10.0895 0 6.5 0C2.91053 0 0 2.91053 0 6.5C0 10.0895 2.91053 13 6.5 13Z" fill="#F0F0F0"/>
<path d="M12.5955 8.75982C13.1348 7.30105 13.1348 5.69754 12.5955 4.23877H0.404475C-0.134825 5.69754 -0.134825 7.30105 0.404475 8.75982L6.5 9.32781L12.5955 8.75982Z" fill="#0052B4"/>
<path d="M6.50007 13C9.29507 13 11.6782 11.2379 12.5956 8.75977H0.404541C1.32292 11.2379 3.70507 13 6.50007 13Z" fill="#D80027"/>
</svg>
