<svg width="13" height="13" viewBox="0 0 13 13" fill="none" xmlns="http://www.w3.org/2000/svg">
<path d="M6.50454 6.9334C5.99031 6.9334 5.48763 6.78091 5.06006 6.49522C4.63249 6.20953 4.29924 5.80346 4.10246 5.32837C3.90567 4.85329 3.85418 4.33051 3.9545 3.82616C4.05482 3.32181 4.30245 2.85854 4.66606 2.49492C5.02968 2.13131 5.49296 1.88368 5.99731 1.78336C6.50166 1.68304 7.02443 1.73452 7.49952 1.93131C7.9746 2.1281 8.38067 2.46135 8.66636 2.88892C8.95205 3.31648 9.10454 3.81917 9.10454 4.3334C9.10454 5.02296 8.83061 5.68428 8.34302 6.17188C7.85542 6.65947 7.1941 6.9334 6.50454 6.9334ZM6.50454 2.60007C6.16172 2.60007 5.8266 2.70172 5.54155 2.89218C5.25651 3.08265 5.03434 3.35336 4.90315 3.67008C4.77196 3.98681 4.73763 4.33532 4.80451 4.67155C4.87139 5.00779 5.03648 5.31664 5.27889 5.55905C5.5213 5.80146 5.83015 5.96654 6.16638 6.03343C6.50262 6.10031 6.85113 6.06598 7.16786 5.93479C7.48458 5.8036 7.75529 5.58143 7.94575 5.29639C8.13621 5.01134 8.23787 4.67622 8.23787 4.3334C8.23787 3.87369 8.05525 3.43281 7.73019 3.10775C7.40513 2.78268 6.96425 2.60007 6.50454 2.60007Z" fill="white"/>
<path d="M6.5045 12.9998C5.54356 12.9992 4.59471 12.7855 3.72627 12.3741C2.85783 11.9628 2.09141 11.364 1.48217 10.6208L1.25684 10.3435L1.48217 10.0705C2.09192 9.32834 2.85857 8.73053 3.72698 8.32009C4.5954 7.90965 5.54398 7.69678 6.5045 7.69678C7.46502 7.69678 8.4136 7.90965 9.28201 8.32009C10.1504 8.73053 10.9171 9.32834 11.5268 10.0705L11.7522 10.3435L11.5268 10.6208C10.9176 11.364 10.1512 11.9628 9.28273 12.3741C8.41429 12.7855 7.46544 12.9992 6.5045 12.9998ZM2.39217 10.3478C2.9192 10.912 3.55659 11.3619 4.26476 11.6694C4.97293 11.977 5.73676 12.1357 6.50883 12.1357C7.28091 12.1357 8.04474 11.977 8.75291 11.6694C9.46107 11.3619 10.0985 10.912 10.6255 10.3478C10.0985 9.78362 9.46107 9.33378 8.75291 9.02622C8.04474 8.71866 7.28091 8.55995 6.50883 8.55995C5.73676 8.55995 4.97293 8.71866 4.26476 9.02622C3.55659 9.33378 2.9192 9.78362 2.39217 10.3478Z" fill="white"/>
<path d="M6.50434 13C5.02786 13.001 3.59504 12.4993 2.4417 11.5774C1.28837 10.6556 0.483239 9.36854 0.158837 7.92814C-0.165564 6.48774 0.0100909 4.97981 0.656892 3.65255C1.30369 2.32528 2.3831 1.25777 3.71744 0.62571C5.05179 -0.00635018 6.56157 -0.165292 7.99829 0.175044C9.435 0.51538 10.713 1.33471 11.6221 2.49819C12.5311 3.66167 13.0169 5.09996 12.9996 6.57633C12.9822 8.05271 12.4628 9.47919 11.5267 10.621C10.9174 11.3641 10.151 11.9629 9.28256 12.3743C8.41412 12.7857 7.46528 12.9994 6.50434 13ZM6.50434 0.866671C5.39017 0.866671 4.30102 1.19706 3.37463 1.81606C2.44823 2.43506 1.72619 3.31486 1.29982 4.34422C0.873444 5.37358 0.761885 6.50625 0.979249 7.59901C1.19661 8.69177 1.73313 9.69553 2.52097 10.4834C3.30881 11.2712 4.31257 11.8077 5.40533 12.0251C6.49809 12.2425 7.63076 12.1309 8.66012 11.7045C9.68947 11.2781 10.5693 10.5561 11.1883 9.62971C11.8073 8.70331 12.1377 7.61417 12.1377 6.5C12.1377 5.00595 11.5442 3.57309 10.4877 2.51664C9.43125 1.46018 7.99839 0.866671 6.50434 0.866671Z" fill="white"/>
<path d="M1.81567 10.3478C1.81567 10.3478 6.17934 15.2228 10.621 10.8331L11.193 10.3478C11.193 10.3478 7.48367 6.49982 3.71801 8.80948L1.81567 10.3478Z" fill="white"/>
<path d="M6.50431 6.50008C7.70093 6.50008 8.67098 5.53003 8.67098 4.33341C8.67098 3.1368 7.70093 2.16675 6.50431 2.16675C5.3077 2.16675 4.33765 3.1368 4.33765 4.33341C4.33765 5.53003 5.3077 6.50008 6.50431 6.50008Z" fill="white"/>
</svg>
